<svg width="56" height="54" viewBox="0 0 56 54" fill="none" xmlns="http://www.w3.org/2000/svg"><path d="M28.5 16a7.5 7.5 0 100-15 7.5 7.5 0 000 15zM48 48c3.866 0 7-3.358 7-7.5 0-4.142-3.134-7.5-7-7.5s-7 3.358-7 7.5c0 4.142 3.134 7.5 7 7.5zM8.5 48a7.5 7.5 0 100-15 7.5 7.5 0 000 15z" stroke="#fff" stroke-width="2" stroke-miterlimit="10"/><path d="M13 46c4.145 4.488 9.708 7 15.5 7s11.355-2.512 15.5-7m-8-36c4.091 1.52 7.64 4.372 10.149 8.16 2.51 3.789 3.855 8.324 3.85 12.974A18.74 18.74 0 0149.805 34M5.223 34A16.56 16.56 0 015 31.124c.011-4.651 1.558-9.184 4.424-12.969C12.292 14.37 16.338 11.52 21 10" stroke="#fff" stroke-width="2" stroke-miterlimit="10"/></svg>